<svg width="96" height="96" xmlns="http://www.w3.org/2000/svg" xmlns:xlink="http://www.w3.org/1999/xlink" xml:space="preserve" overflow="hidden"><g transform="translate(-512 -420)"><path d="M594 503.6 574 484.6 594 465.6 594 503.6ZM529.2 506 549 487.3 550.4 486C555.8 480.9 564.3 480.9 569.7 486L571.1 487.3 590.8 506 529.2 506ZM526 465.5 546 484.5 526 503.5 526 465.5ZM540 440 580 440 580 473.3 571 481.9C564.5 476.9 555.5 476.9 549 481.9L540 473.3 540 440ZM586 442.7 586 434 572 434 560 424 548 434 534 434 534 442.8 520 456.1 520 512 600 512 600 456.1 586 442.7Z" fill="#F3CD2E"/><path d="M560 462.3C558.2 462.3 556.8 460.8 556.8 459.1 556.8 457.3 558.3 455.9 560 455.9 561.8 455.9 563.2 457.3 563.2 459.1 563.2 460.9 561.8 462.3 560 462.3ZM560 472C562.3 472 564.5 471.4 566.5 470.4 567.3 469.9 567.6 468.9 567.2 468.1 566.7 467.3 565.7 467 564.9 467.4 563.4 468.2 561.7 468.6 560 468.6 554.7 468.6 550.3 464.2 550.4 458.9 550.4 453.6 554.8 449.2 560.1 449.2 565.4 449.2 569.8 453.5 569.8 458.9L569.8 462.1C568 462.1 566.6 460.7 566.6 458.9 566.6 455.7 564.4 453 561.3 452.4 558.2 451.8 555.1 453.5 554 456.4 552.9 459.3 554 462.7 556.7 464.3 559.4 465.9 562.9 465.4 565 463 566.2 464.4 568 465.2 569.9 465.2 571.7 465.2 573.1 463.8 573.1 462L573.1 458.8C573.1 451.6 567.3 445.8 560.1 445.8 552.9 445.8 547.1 451.6 547.1 458.8 547 466.1 552.8 471.9 560 472Z" fill="#F3CD2E"/></g></svg>