<svg width="96" height="96" xmlns="http://www.w3.org/2000/svg" xmlns:xlink="http://www.w3.org/1999/xlink" xml:space="preserve" overflow="hidden"><g transform="translate(-219 -410)"><path d="M256 450.08C256.538 449.521 256.84 448.776 256.84 448 256.843 447.212 256.53 446.455 255.97 445.9L246.49 436.41C245.93 435.85 245.172 435.533 244.38 435.53 243.592 435.536 242.837 435.852 242.28 436.41L241.23 437.47 254.91 451.12Z" fill="#F3CD2E"/><path d="M269.75 474.36C269.177 474.943 268.24 474.95 267.657 474.377 267.651 474.371 267.646 474.366 267.64 474.36L250.64 457.36C250.055 456.774 250.055 455.826 250.64 455.24L252.76 453.18 239.13 439.56C238.25 440.44 237.39 441.3 236.83 441.83 235.458 443.112 234.638 444.875 234.54 446.75 234.416 449.808 234.962 452.855 236.14 455.68 237.268 458.211 238.652 460.62 240.27 462.87 245.896 471.311 253.012 478.658 261.27 484.55 262.649 485.57 264.099 486.489 265.61 487.3 269.025 489.095 272.766 490.183 276.61 490.5 279.24 490.691 281.814 489.68 283.61 487.75L285.49 485.87 271.81 472.24Z" fill="#F3CD2E"/><path d="M288.63 478.51 279.15 469C277.981 467.843 276.099 467.843 274.93 469L273.93 470.08 287.57 483.78 288.63 482.78C289.787 481.611 289.787 479.729 288.63 478.56Z" fill="#F3CD2E"/><path d="M281.14 460 277.14 460C276.706 454.263 272.602 449.471 267 448.16L267 444.08C274.826 445.481 280.673 452.063 281.14 460Z" fill="#F3CD2E"/><path d="M290.7 458C290.7 458.67 290.7 459.34 290.61 460L286.61 460C286.679 459.336 286.712 458.668 286.71 458 286.693 447.123 277.877 438.311 267 438.3L267 434.3C280.085 434.311 290.689 444.915 290.7 458Z" fill="#F3CD2E"/><path d="M301 458C301 458.67 301 459.34 300.93 460L296.93 460C296.93 459.34 297.01 458.67 297.01 458 297.01 441.984 284.026 429 268.01 429 268.007 429 268.003 429 268 429 267.66 429 267.33 429 267 429L267 425 268 425C286.225 425 301 439.775 301 458Z" fill="#F3CD2E"/></g></svg>